<svg xmlns="http://www.w3.org/2000/svg" xmlns:xlink="http://www.w3.org/1999/xlink" id="Layer_1" data-name="Layer 1" viewBox="0 0 1200.84 300">
  <defs>
    <style>
      .cls-1 {
        fill: url(#linear-gradient);
      }

      .cls-1, .cls-2 {
        stroke-width: 0px;
      }
    </style>
    <linearGradient id="linear-gradient" x1="53.99" y1="265.01" x2="243.56" y2="39.09" gradientUnits="userSpaceOnUse">
      <stop offset="0" stop-color="#56bcf1"/>
      <stop offset="1" stop-color="#65dbca"/>
    </linearGradient>
  </defs>
  <path class="cls-1" d="m273.21,64.32c-4.1-5.87-13.35-2.96-13.35,4.2v81.48c0,60.62-49.14,109.76-109.76,109.76h0c-60.62,0-109.76-49.14-109.76-109.76v-81.49c0-7.13-9.22-10.09-13.31-4.24C8.27,91.15-1.93,124.47.45,160.26c4.94,74.07,64.68,134.1,138.73,139.35,87.78,6.22,160.93-63.16,160.93-149.61,0-31.86-9.95-61.39-26.9-85.68Zm-125.93,158.8c41.63,1.57,75.99-31.83,75.99-73.12V32.67c0-8.77-5.22-16.68-13.25-20.19C191.68,4.46,171.42,0,150.11,0s-41.57,4.46-59.92,12.48c-8.03,3.51-13.25,11.42-13.25,20.19v115.54c0,39.62,30.75,73.42,70.35,74.91Z"/>
  <g>
    <path class="cls-2" d="m444.66,204.12c0,20.83-10.3,31.13-31.13,31.13h-20.36c-20.83,0-31.13-10.3-31.13-31.13V66.19h33.53v134.34c0,4.07,1.92,5.99,5.99,5.99h3.59c4.07,0,5.99-1.92,5.99-5.99V66.19h33.53v137.93Z"/>
    <path class="cls-2" d="m474.94,233.81V96.12h-20.35v-29.93h74.23v29.93h-20.35v137.69h-33.53Z"/>
    <path class="cls-2" d="m620.16,176.1v57.71h-33.53v-57.47c0-4.07-1.92-5.99-5.99-5.99h-8.38v63.46h-33.53V66.19h50.05c20.83,0,31.13,10.3,31.13,31.13v32.33c0,14.37-5.27,21.55-14.37,24.9,10.3,2.87,14.61,9.34,14.61,21.55Zm-39.75-80.7h-8.14v46.46h8.14c4.07,0,5.99-1.92,5.99-5.99v-34.48c0-4.07-1.92-5.99-5.99-5.99Z"/>
    <path class="cls-2" d="m740.72,173.23v30.89c0,20.83-10.3,31.13-31.13,31.13h-18.68c-20.83,0-31.13-10.3-31.13-31.13v-35.68h32.81v32.57c0,4.07,1.92,5.99,5.99,5.99h3.11c4.07,0,5.99-1.92,5.99-5.99v-20.12c0-5.27-1.68-7.9-5.75-10.78l-28.74-21.31c-10.3-7.42-13.41-14.37-13.41-26.34v-26.58c0-20.83,10.3-31.13,31.13-31.13h18.2c20.83,0,31.13,10.3,31.13,31.13v30.65h-32.81v-27.54c0-4.07-1.92-5.99-5.99-5.99h-2.63c-4.07,0-5.99,1.92-5.99,5.99v15.8c0,5.27,1.68,7.9,5.75,10.78l28.74,21.31c10.3,7.42,13.41,13.89,13.41,26.34Z"/>
    <path class="cls-2" d="m787.4,233.81h-33.53V66.19h49.09c20.83,0,31.13,10.3,31.13,31.13v47.17c0,20.83-10.3,31.13-31.13,31.13h-15.57v58.19Zm7.18-138.89h-7.18v51.96h7.18c4.07,0,5.99-1.92,5.99-5.99v-39.99c0-4.07-1.92-5.99-5.99-5.99Z"/>
    <path class="cls-2" d="m900,235.25h-21.55c-20.83,0-31.13-10.3-31.13-31.13v-108.24c0-20.83,10.3-31.13,31.13-31.13h21.55c20.83,0,31.13,10.3,31.13,31.13v108.24c0,20.83-10.3,31.13-31.13,31.13Zm-8.38-141.76h-4.79c-4.07,0-5.99,1.92-5.99,5.99v101.05c0,4.07,1.92,5.99,5.99,5.99h4.79c4.07,0,5.99-1.92,5.99-5.99v-101.05c0-4.07-1.92-5.99-5.99-5.99Z"/>
    <path class="cls-2" d="m1025.78,176.1v57.71h-33.52v-57.47c0-4.07-1.92-5.99-5.99-5.99h-8.38v63.46h-33.53V66.19h50.05c20.83,0,31.13,10.3,31.13,31.13v32.33c0,14.37-5.27,21.55-14.37,24.9,10.3,2.87,14.61,9.34,14.61,21.55Zm-39.75-80.7h-8.14v46.46h8.14c4.07,0,5.99-1.92,5.99-5.99v-34.48c0-4.07-1.92-5.99-5.99-5.99Z"/>
    <path class="cls-2" d="m1056.06,233.81V96.12h-20.35v-29.93h74.23v29.93h-20.35v137.69h-33.53Z"/>
    <path class="cls-2" d="m1200.8,173.23v30.89c0,20.83-10.3,31.13-31.13,31.13h-18.68c-20.83,0-31.13-10.3-31.13-31.13v-35.68h32.81v32.57c0,4.07,1.92,5.99,5.99,5.99h3.11c4.07,0,5.99-1.92,5.99-5.99v-20.12c0-5.27-1.68-7.9-5.75-10.78l-28.73-21.31c-10.3-7.42-13.41-14.37-13.41-26.34v-26.58c0-20.83,10.3-31.13,31.13-31.13h18.2c20.83,0,31.13,10.3,31.13,31.13v30.65h-32.81v-27.54c0-4.07-1.92-5.99-5.99-5.99h-2.63c-4.07,0-5.99,1.92-5.99,5.99v15.8c0,5.27,1.68,7.9,5.75,10.78l28.74,21.31c10.3,7.42,13.41,13.89,13.41,26.34Z"/>
  </g>
</svg>